<?xml version="1.0" encoding="UTF-8" standalone="no"?>
<!-- Created with Inkscape (http://www.inkscape.org/) -->

<svg
   xmlns:dc="http://purl.org/dc/elements/1.1/"
   xmlns:cc="http://creativecommons.org/ns#"
   xmlns:rdf="http://www.w3.org/1999/02/22-rdf-syntax-ns#"
   xmlns:svg="http://www.w3.org/2000/svg"
   xmlns="http://www.w3.org/2000/svg"
   xmlns:xlink="http://www.w3.org/1999/xlink"
   xmlns:sodipodi="http://sodipodi.sourceforge.net/DTD/sodipodi-0.dtd"
   xmlns:inkscape="http://www.inkscape.org/namespaces/inkscape"
   width="1920"
   height="1080"
   viewBox="0 0 507.99999 285.75001"
   version="1.1"
   id="svg12523"
   inkscape:version="0.92.4 (5da689c313, 2019-01-14)"
   sodipodi:docname="flame.svg"
   inkscape:export-filename="G:\Hugo\practice\static\icons\bitmap.png"
   inkscape:export-xdpi="96"
   inkscape:export-ydpi="96">
  <defs
     id="defs12517">
    <linearGradient
       inkscape:collect="always"
       id="linearGradient13263">
      <stop
         style="stop-color:#ff0000;stop-opacity:1;"
         offset="0"
         id="stop13259" />
      <stop
         style="stop-color:#ff8080;stop-opacity:1"
         offset="1"
         id="stop13261" />
    </linearGradient>
    <linearGradient
       inkscape:collect="always"
       id="linearGradient13246">
      <stop
         style="stop-color:#ff6600;stop-opacity:1"
         offset="0"
         id="stop13242" />
      <stop
         style="stop-color:#ffdd55;stop-opacity:1"
         offset="1"
         id="stop13244" />
    </linearGradient>
    <inkscape:path-effect
       effect="skeletal"
       id="path-effect13227"
       is_visible="true"
       pattern="m -415.77381,-101.82211 c 70.05158,0 148.60185,158.429225 148.60185,158.429225 0,0 -78.55027,158.429235 -148.60186,158.429235 -70.05158,0 -148.60185,-158.429225 -148.60185,-158.429225 0,0 78.55028,-158.429235 148.60186,-158.429235 z"
       copytype="single_stretched"
       prop_scale="0.26458333"
       scale_y_rel="false"
       spacing="0"
       normal_offset="0"
       tang_offset="0"
       prop_units="false"
       vertical_pattern="false"
       fuse_tolerance="0" />
    <inkscape:path-effect
       effect="spiro"
       id="path-effect13225"
       is_visible="true" />
    <inkscape:path-effect
       fuse_tolerance="0"
       vertical_pattern="false"
       prop_units="false"
       tang_offset="0"
       normal_offset="0"
       spacing="0"
       scale_y_rel="false"
       prop_scale="0.26458333"
       copytype="single_stretched"
       pattern="m -415.77381,-101.82211 c 70.05158,0 148.60185,158.429225 148.60185,158.429225 0,0 -78.55027,158.429235 -148.60186,158.429235 -70.05158,0 -148.60185,-158.429225 -148.60185,-158.429225 0,0 78.55028,-158.429235 148.60186,-158.429235 z"
       is_visible="true"
       id="path-effect13221"
       effect="skeletal" />
    <inkscape:path-effect
       is_visible="true"
       id="path-effect13219"
       effect="spiro" />
    <inkscape:path-effect
       effect="skeletal"
       id="path-effect13215"
       is_visible="true"
       pattern="m -415.77381,-101.82211 c 70.05158,0 148.60185,158.429225 148.60185,158.429225 0,0 -78.55027,158.429235 -148.60186,158.429235 -70.05158,0 -148.60185,-158.429225 -148.60185,-158.429225 0,0 78.55028,-158.429235 148.60186,-158.429235 z"
       copytype="single_stretched"
       prop_scale="0.26458333"
       scale_y_rel="false"
       spacing="0"
       normal_offset="0"
       tang_offset="0"
       prop_units="false"
       vertical_pattern="false"
       fuse_tolerance="0" />
    <inkscape:path-effect
       effect="spiro"
       id="path-effect13207"
       is_visible="true" />
    <inkscape:path-effect
       effect="skeletal"
       id="path-effect13203"
       is_visible="true"
       pattern="m -415.77381,-101.82211 c 70.05158,0 148.60185,158.429225 148.60185,158.429225 0,0 -78.55027,158.429235 -148.60186,158.429235 -70.05158,0 -148.60185,-158.429225 -148.60185,-158.429225 0,0 78.55028,-158.429235 148.60186,-158.429235 z"
       copytype="single_stretched"
       prop_scale="0.26458333"
       scale_y_rel="false"
       spacing="0"
       normal_offset="0"
       tang_offset="0"
       prop_units="false"
       vertical_pattern="false"
       fuse_tolerance="0" />
    <inkscape:path-effect
       effect="spiro"
       id="path-effect13195"
       is_visible="true" />
    <inkscape:path-effect
       effect="skeletal"
       id="path-effect13182"
       is_visible="true"
       pattern="m -415.77381,-101.8221 c 53.67043,14.332825 38.2328,162.208987 38.2328,162.208987 0,0 13.14489,141.228113 -38.23281,154.649493 -70.05415,18.3002 -148.60185,-158.429253 -148.60185,-158.429253 0,0 78.64836,-177.110487 148.60186,-158.429227 z"
       copytype="single_stretched"
       prop_scale="0.26458333"
       scale_y_rel="false"
       spacing="0"
       normal_offset="0"
       tang_offset="0"
       prop_units="false"
       vertical_pattern="false"
       fuse_tolerance="0" />
    <inkscape:path-effect
       effect="spiro"
       id="path-effect13174"
       is_visible="true" />
    <inkscape:path-effect
       effect="skeletal"
       id="path-effect13149"
       is_visible="true"
       pattern="m -415.77381,-101.82211 c 70.05158,0 148.60185,93.7952948 148.60185,93.7952948 0,0 -78.55027,93.7953202 -148.60186,93.7953202 -70.05158,0 -148.60185,-93.7953102 -148.60185,-93.7953102 0,0 78.55028,-93.7953048 148.60186,-93.7953048 z"
       copytype="single_stretched"
       prop_scale="0.26458333"
       scale_y_rel="false"
       spacing="0"
       normal_offset="0"
       tang_offset="0"
       prop_units="false"
       vertical_pattern="false"
       fuse_tolerance="0" />
    <inkscape:path-effect
       effect="spiro"
       id="path-effect13141"
       is_visible="true" />
    <inkscape:path-effect
       effect="skeletal"
       id="path-effect13137"
       is_visible="true"
       pattern="m -415.77381,-101.82211 c 70.05158,0 148.60185,93.7952948 148.60185,93.7952948 0,0 -78.55027,93.7953202 -148.60186,93.7953202 -70.05158,0 -148.60185,-93.7953102 -148.60185,-93.7953102 0,0 78.55028,-93.7953048 148.60186,-93.7953048 z"
       copytype="single_stretched"
       prop_scale="0.26458333"
       scale_y_rel="false"
       spacing="0"
       normal_offset="0"
       tang_offset="0"
       prop_units="false"
       vertical_pattern="false"
       fuse_tolerance="0" />
    <inkscape:path-effect
       effect="spiro"
       id="path-effect13129"
       is_visible="true" />
    <inkscape:path-effect
       effect="skeletal"
       id="path-effect13125"
       is_visible="true"
       pattern="m -415.77381,-101.82211 c 70.05158,0 148.60185,93.7952948 148.60185,93.7952948 0,0 -78.55027,93.7953202 -148.60186,93.7953202 -70.05158,0 -148.60185,-93.7953102 -148.60185,-93.7953102 0,0 78.55028,-93.7953048 148.60186,-93.7953048 z"
       copytype="single_stretched"
       prop_scale="0.26458333"
       scale_y_rel="false"
       spacing="0"
       normal_offset="0"
       tang_offset="0"
       prop_units="false"
       vertical_pattern="false"
       fuse_tolerance="0" />
    <inkscape:path-effect
       effect="spiro"
       id="path-effect13117"
       is_visible="true" />
    <inkscape:path-effect
       effect="skeletal"
       id="path-effect13104"
       is_visible="true"
       pattern="m -415.77381,-101.82211 c 70.05158,0 148.60185,51.839943 148.60185,51.839943 0,0 -78.55027,51.8399518 -148.60186,51.8399518 -70.05158,0 -148.60185,-51.8399498 -148.60185,-51.8399498 0,0 78.55028,-51.839945 148.60186,-51.839945 z"
       copytype="single_stretched"
       prop_scale="0.26458333"
       scale_y_rel="false"
       spacing="0"
       normal_offset="0"
       tang_offset="0"
       prop_units="false"
       vertical_pattern="false"
       fuse_tolerance="0" />
    <inkscape:path-effect
       effect="spiro"
       id="path-effect13096"
       is_visible="true" />
    <linearGradient
       inkscape:collect="always"
       xlink:href="#linearGradient13246"
       id="linearGradient13248"
       x1="-212.42262"
       y1="161.24815"
       x2="198.05955"
       y2="161.24815"
       gradientUnits="userSpaceOnUse" />
    <linearGradient
       inkscape:collect="always"
       xlink:href="#linearGradient13263"
       id="linearGradient13265"
       x1="885.50586"
       y1="1447.8398"
       x2="497.90039"
       y2="-527.45703"
       gradientUnits="userSpaceOnUse" />
  </defs>
  <sodipodi:namedview
     id="base"
     pagecolor="#ffffff"
     bordercolor="#666666"
     borderopacity="1.0"
     inkscape:pageopacity="0.0"
     inkscape:pageshadow="2"
     inkscape:zoom="2.56"
     inkscape:cx="-1041.7181"
     inkscape:cy="-498.32564"
     inkscape:document-units="mm"
     inkscape:current-layer="layer1"
     showgrid="false"
     units="px"
     showborder="false"
     inkscape:object-nodes="true"
     inkscape:window-width="1920"
     inkscape:window-height="1001"
     inkscape:window-x="-9"
     inkscape:window-y="-9"
     inkscape:window-maximized="1" />
  <metadata
     id="metadata12520">
    <rdf:RDF>
      <cc:Work
         rdf:about="">
        <dc:format>image/svg+xml</dc:format>
        <dc:type
           rdf:resource="http://purl.org/dc/dcmitype/StillImage" />
        <dc:title />
      </cc:Work>
    </rdf:RDF>
  </metadata>
  <g
     inkscape:label="Layer 1"
     inkscape:groupmode="layer"
     id="layer1"
     transform="translate(0,-11.249983)">
    <g
       id="g845"
       transform="matrix(0.08317623,0,0,0.08317623,-278.98234,423.44979)">
      <path
         id="path13205"
         transform="matrix(0.26458333,0,0,0.26458333,0,11.249983)"
         d="m 497.90039,-527.45703 c 0,0 -35.85399,14.86498 -88.66797,59.47851 -51.62243,43.60703 -123.34331,122.33662 -164.79687,244.37696 -41.27641,122.32266 -48.88261,282.25522 19.75,442.89844 8.95444,20.54855 18.78071,40.55945 29.37695,59.99023 -3.7168,8.0778 -7.17172,16.651 -10.26172,25.74805 -19.19652,56.88889 -22.73358,131.26975 9.18555,205.98046 14.5519,33.39353 34.03469,63.75401 56.57031,90.0918 30.48512,35.63864 62.85782,63.73684 91.40625,86.72461 -0.001,-10e-4 0.79444,0.66332 0.79297,0.66211 27.73345,23.10248 53.69803,41.82471 72.87305,60.92969 38.54865,36.40807 68.06784,86.13417 81.52148,138.58203 13.19475,50.73861 10.12048,99.73042 2.78906,136.48044 -7.2308,36.2457 -16.99414,57.8907 -16.99414,57.8907 0,0 20.81766,-10.9358 49.01172,-40.6719 27.7694,-29.2882 63.49809,-80.00209 77.32031,-152.93752 12.13754,-64.87775 5.24054,-141.57495 -31.20507,-213.25196 23.72378,19.26786 45.47022,37.75734 64.1875,56.40626 82.88743,78.28475 146.36295,185.2088 175.29101,297.98242 28.37132,109.0983 21.76015,214.4389 5.9961,293.459 -15.54771,77.9356 -36.54102,124.4765 -36.54102,124.4765 0,0 44.76371,-23.5145 105.38672,-87.4531 59.70982,-62.9755 136.53322,-172.0216 166.25392,-328.8476 C 1187.929,867 1161.7868,667.10386 1041.5898,491.26758 980.23521,403.99588 909.63203,335.68044 842.82031,282.58008 c -0.63545,-0.50502 -1.27113,-1.00909 -1.90625,-1.51172 C 774.26823,226.53831 710.3264,184.21771 658.60156,142.54492 620.52368,111.9027 586.14894,82.701486 558.32812,51.113281 496.12926,-17.024296 455.33479,-107.84936 441.6543,-197.81641 c -14.07327,-90.8382 0.32476,-174.9646 18.67187,-235.42382 18.2299,-60.07306 37.57422,-94.2168 37.57422,-94.2168 z"
         style="fill:url(#linearGradient13265);fill-opacity:1;stroke:none;stroke-width:1.29448986px;stroke-linecap:butt;stroke-linejoin:miter;stroke-opacity:1"
         inkscape:connector-curvature="0" />
      <path
         id="path13217"
         d="m -29.269719,131.10137 c -6.82e-4,4.8e-4 0.371806,-0.262 0.371125,-0.26152 13.005817,-9.5043 28.61570435,-20.05144 47.212217,-28.93885 13.743975,-6.570745 28.848855,-11.38744 44.679948,-13.766444 35.346084,-5.05185 66.518859,4.910194 88.485169,19.530224 21.9012,14.64007 33.6502,32.96461 39.52857,45.46313 6.01405,12.78701 7.05224,20.65188 7.05224,20.65188 0,0 -5.71755,-5.62527 -16.61325,-12.40225 -10.96574,-6.82055 -26.81302,-14.11347 -45.49146,-16.14041 -18.48567,-2.0584 -38.574883,1.19112 -55.317465,9.86637 -7.708115,3.82156 -15.291805,9.0631 -23.355762,14.95973 -10.963625,8.00739 -22.701596,18.39253 -36.992925,28.66558 -0.132832,0.0988 -0.265908,0.19757 -0.399228,0.29631 -14.0178442,10.38143 -31.240111,20.70646 -51.715634,28.20283 0,0 -2.1e-5,0 -2.1e-5,0 -41.073392,14.42834 -81.921305,9.01497 -112.777425,-5.76654 -29.38952,-14.16385 -46.85421,-35.09952 -56.12862,-50.21931 -9.41624,-15.35103 -11.69038,-25.43259 -11.69038,-25.43259 0,0 8.07763,6.60685 22.64178,13.79923 14.7668,7.29246 35.21416,14.17021 58.25402,14.34029 23.79492,0.25459 48.262636,-6.62072 68.102986,-18.84367 -10e-7,-1e-5 10e-6,-1e-5 10e-6,-1e-5 10.291343,-5.96684 21.192293,-14.85871 34.154105,-24.00398 z"
         style="fill:url(#linearGradient13248);fill-opacity:1;stroke:none;stroke-width:0.26458332px;stroke-linecap:butt;stroke-linejoin:miter;stroke-opacity:1"
         transform="matrix(0.24393149,-0.9103647,-0.9103647,-0.24393149,140.91481,239.53339)"
         inkscape:connector-curvature="0" />
    </g>
  </g>
</svg>
