<?xml version="1.0" encoding="UTF-8" standalone="no"?>
<svg
   xmlns:dc="http://purl.org/dc/elements/1.1/"
   xmlns:cc="http://creativecommons.org/ns#"
   xmlns:rdf="http://www.w3.org/1999/02/22-rdf-syntax-ns#"
   xmlns:svg="http://www.w3.org/2000/svg"
   xmlns="http://www.w3.org/2000/svg"
   xmlns:sodipodi="http://sodipodi.sourceforge.net/DTD/sodipodi-0.dtd"
   xmlns:inkscape="http://www.inkscape.org/namespaces/inkscape"
   viewBox="0 0 500 500"
   width="500"
   height="500"
   version="1.1"
   id="svg8"
   sodipodi:docname="scholar.svg"
   inkscape:version="0.92.4 (5da689c313, 2019-01-14)"
   style="fill:#000000">
  <metadata
     id="metadata14">
    <rdf:RDF>
      <cc:Work
         rdf:about="">
        <dc:format>image/svg+xml</dc:format>
        <dc:type
           rdf:resource="http://purl.org/dc/dcmitype/StillImage" />
        <dc:title></dc:title>
      </cc:Work>
    </rdf:RDF>
  </metadata>
  <defs
     id="defs12" />
  <sodipodi:namedview
     pagecolor="#ffffff"
     bordercolor="#666666"
     borderopacity="1"
     objecttolerance="10"
     gridtolerance="10"
     guidetolerance="10"
     inkscape:pageopacity="0"
     inkscape:pageshadow="2"
     inkscape:window-width="1920"
     inkscape:window-height="1001"
     id="namedview10"
     showgrid="false"
     inkscape:snap-smooth-nodes="true"
     inkscape:zoom="0.59"
     inkscape:cx="562.36193"
     inkscape:cy="149.74159"
     inkscape:window-x="-9"
     inkscape:window-y="-9"
     inkscape:window-maximized="1"
     inkscape:current-layer="svg8" />
  <circle
     style="opacity:0.99299999;fill:#ffffff;fill-opacity:1;stroke:none;stroke-width:154.85565186;stroke-linecap:round;stroke-linejoin:round;stroke-miterlimit:4;stroke-dasharray:none;stroke-opacity:1"
     id="path918"
     cx="251.9407"
     cy="249.33052"
     inkscape:export-xdpi="1090.9091"
     inkscape:export-ydpi="1090.9091"
     r="250" />
  <path
     style="opacity:1;fill:#000000;fill-opacity:1;stroke:none;stroke-width:65.58592224;stroke-linecap:round;stroke-linejoin:round;stroke-miterlimit:4;stroke-dasharray:none;stroke-opacity:1"
     d="m 235.69246,-0.09676708 a 250,250.00002 0 0 0 -2.75215,0.20002 c 0.91704,-0.0683 1.83204,-0.14098 2.75215,-0.20002 z M 210.03554,2.8994829 a 250,250.00002 0 0 0 -1.30955,0.2216 c 0.43635,-0.0795 0.87272,-0.14773 1.30955,-0.2216 z M 139.0128,26.314722 a 250,250.00002 0 0 0 -0.93182,0.465913 c 0.30909,-0.15911 0.62273,-0.309098 0.93182,-0.465913 z M 117.57281,38.54403 a 250,250.00002 0 0 0 -1.30955,0.843188 c 0.43523,-0.281808 0.8716,-0.563636 1.30955,-0.843188 z m 275.34623,4.327952 c 0.20683,0.140982 0.41593,0.279552 0.62159,0.421594 a 250,250.00002 0 0 0 -0.62159,-0.421594 z M 97.775189,52.615391 a 250,250.00002 0 0 0 -2.15284,1.686723 c 0.71136,-0.571601 1.43477,-1.12274 2.15284,-1.686723 z M 412.4503,57.697892 c 0.48637,0.407959 0.95909,0.831828 1.44261,1.242969 A 250,250.00002 0 0 0 412.4503,57.697892 Z M 79.065179,68.8396 a 250,250.00002 0 0 0 -2.10851,2.019774 c 0.69546,-0.681821 1.40557,-1.346246 2.10851,-2.019774 z m 351.362741,5.504326 c 0.67386,0.687492 1.33113,1.390913 1.9975,2.086254 a 250,250.00002 0 0 0 -1.9975,-2.086254 z M 61.864289,87.039148 a 250,250.00002 0 0 0 -1.70898,1.975339 c 0.55908,-0.668186 1.14341,-1.313518 1.70898,-1.975339 z M 206.48439,90.23518 92.848019,192.50789 h 77.059671 c 0.22727,32.38638 24.88898,65.09682 68.0708,65.09682 4.09091,0 8.63818,-0.43296 13.18363,-0.88749 -2.04545,5.11363 -4.21704,9.31466 -4.21704,16.24646 0,13.0682 6.58921,20.90909 12.38466,28.4091 -18.52273,1.24999 -52.93966,3.40284 -78.28034,19.1983 -24.20455,14.65909 -31.60523,35.91442 -31.60523,50.91442 0,30.9091 28.63648,59.65908 88.06818,59.65908 70.45455,0 107.84363,-39.6751 107.84363,-78.87965 0,-28.75 -16.35568,-42.93943 -34.42387,-58.39397 l -14.67056,-11.71875 c -4.54558,-3.63637 -10.78659,-8.73137 -10.78659,-17.82227 0,-9.20454 6.24466,-15.11989 11.58558,-20.57444 17.15908,-13.63636 34.42385,-28.97192 34.42385,-59.881 0,-11.81819 -2.72557,-21.47547 -6.70284,-29.43001 l 40.79376,-35.00092 v 42.14763 c -6.81819,3.86364 -11.36366,11.14431 -11.36366,19.55341 v 68.18181 c 0,12.49999 10.22728,22.72727 22.72729,22.72727 12.49999,0 22.72726,-10.22728 22.72726,-22.72727 v -68.18181 c 0,-8.4091 -4.54544,-15.68977 -11.36363,-19.55341 v -59.99206 c 0,-0.45453 -0.2216,-0.92159 -0.2216,-1.37602 l 11.5857,-9.987612 z m 240.54499,2.818739 c 0.51137,0.637502 1.00456,1.288639 1.50933,1.930904 a 250,250.00002 0 0 0 -1.50933,-1.930904 z m 14.8483,20.574441 c 0.28183,0.43523 0.56364,0.87159 0.84319,1.30942 a 250,250.00002 0 0 0 -0.84319,-1.30942 z m -218.21737,13.42772 c 34.0909,0 51.69125,46.70182 51.69125,76.81545 0,7.38638 -0.91364,20.68103 -10.23172,30.34012 -6.5909,6.70453 -17.60216,11.69647 -27.94307,11.69647 -35.11362,0 -51.24726,-46.35295 -51.24726,-74.3075 0,-10.79545 2.14579,-22.05875 9.07761,-30.6951 6.59091,-8.52274 18.08499,-13.84944 28.65319,-13.84944 z m 230.86828,8.4783 c 0.12497,0.24432 0.25228,0.4875 0.37727,0.73181 a 250,250.00002 0 0 0 -0.37727,-0.73181 z m 23.615,70.53443 c 0.0795,0.45226 0.16702,0.9 0.24432,1.35386 a 250,250.00002 0 0 0 -0.24432,-1.35386 z m 3.01852,24.21432 c 0.0681,0.925 0.13983,1.84693 0.2,2.7743 a 250,250.00002 0 0 0 -0.2,-2.7743 z M 2.5381389,265.50596 a 250,250.00002 0 0 0 0.2216,2.9075 c -0.0683,-0.96932 -0.15911,-1.93511 -0.2216,-2.9075 z m 2.97409,25.72352 a 250,250.00002 0 0 0 0.2216,1.28738 c -0.0795,-0.42954 -0.14889,-0.85794 -0.2216,-1.28738 z M 263.7686,313.06902 c 4.20454,0 6.24829,0.0116 9.54374,0.46592 31.13637,22.5 44.54456,33.74818 44.54456,54.99817 0,25.79547 -20.80433,45.09944 -60.23614,45.09944 -43.86364,0 -72.04374,-21.23306 -72.04374,-50.89215 0,-29.65909 26.15419,-39.55966 35.24511,-42.96877 17.15897,-5.90908 39.3101,-6.70284 42.94647,-6.70284 z M 29.038479,362.45198 a 250,250.00002 0 0 0 0.26592,0.55455 c -0.0908,-0.18303 -0.17396,-0.37159 -0.26592,-0.55455 z m 12.02956,21.06274 a 250,250.00002 0 0 0 1.08749,1.70896 c -0.36704,-0.56589 -0.72387,-1.13966 -1.08749,-1.70896 z m 14.20453,20.01954 a 250,250.00002 0 0 0 1.64239,2.10841 c -0.55681,-0.69432 -1.09318,-1.40864 -1.64239,-2.10841 z m 388.361131,6.23669 c -0.46136,0.55114 -0.95341,1.07273 -1.42044,1.62013 a 250,250.00002 0 0 0 1.42044,-1.62013 z M 71.607809,422.35528 a 250,250.00002 0 0 0 1.73114,1.81989 c -0.58524,-0.59773 -1.15205,-1.21649 -1.73114,-1.81989 z m 355.180211,5.57078 c -0.5875,0.57616 -1.18205,1.13921 -1.77567,1.70898 a 250,250.00002 0 0 0 1.77567,-1.70898 z M 89.896089,439.60051 a 250,250.00002 0 0 0 1.57581,1.37601 c -0.53409,-0.44773 -1.04546,-0.92386 -1.57581,-1.37601 z m 318.137381,4.92715 c -0.53067,0.42501 -1.06362,0.84433 -1.59795,1.26511 a 250,250.00002 0 0 0 1.59795,-1.26511 z m -20.39681,14.715 c -0.43523,0.28183 -0.87159,0.56364 -1.30943,0.84319 a 250,250.00002 0 0 0 1.30943,-0.84319 z m -21.99478,12.7175 c -0.18302,0.0908 -0.37158,0.17376 -0.55453,0.26591 a 250,250.00002 0 0 0 0.55453,-0.26591 z m -70.49011,23.57068 c -0.42954,0.0795 -0.85794,0.14889 -1.28727,0.2216 a 250,250.00002 0 0 0 1.28727,-0.2216 z m -23.94794,2.97409 c -1.13967,0.0908 -2.2741,0.19433 -3.41796,0.26592 a 250,250.00002 0 0 0 3.41796,-0.26592 z"
     id="path845"
     inkscape:connector-curvature="0"
     inkscape:export-xdpi="1090.9091"
     inkscape:export-ydpi="1090.9091" />
</svg>
