<?xml version="1.0" encoding="UTF-8"?>
<!DOCTYPE svg PUBLIC "-//W3C//DTD SVG 1.1//EN" "http://www.w3.org/Graphics/SVG/1.1/DTD/svg11.dtd">
<svg xmlns="http://www.w3.org/2000/svg" version="1.1" width="300px" height="200px" style="shape-rendering:geometricPrecision; text-rendering:geometricPrecision; image-rendering:optimizeQuality; fill-rule:evenodd; clip-rule:evenodd" xmlns:xlink="http://www.w3.org/1999/xlink">
<g><path style="opacity:1" fill="#fefefe" d="M -0.5,-0.5 C 99.5,-0.5 199.5,-0.5 299.5,-0.5C 299.5,66.1667 299.5,132.833 299.5,199.5C 199.5,199.5 99.5,199.5 -0.5,199.5C -0.5,132.833 -0.5,66.1667 -0.5,-0.5 Z"/></g>
<g><path style="opacity:1" fill="#f7f7f7" d="M 65.5,85.5 C 67.5112,89.0302 69.3446,92.6969 71,96.5C 71.7536,101.963 71.2536,107.296 69.5,112.5C 58.8542,127.182 45.5209,130.516 29.5,122.5C 21.348,114.531 18.5146,104.864 21,93.5C 22.1932,91.1136 23.3599,88.7802 24.5,86.5C 37.8008,73.6311 51.4675,73.2978 65.5,85.5 Z"/></g>
<g><path style="opacity:1" fill="#ced6da" d="M 62.5,78.5 C 64.1667,80.8333 66.1667,82.8333 68.5,84.5C 68.6495,85.552 68.4828,86.552 68,87.5C 67.2917,86.6195 66.4584,85.9528 65.5,85.5C 60.6864,78.4819 53.8531,75.1486 45,75.5C 35.9913,75.4167 29.158,79.0833 24.5,86.5C 22.5,87.5 20.5,88.5 18.5,89.5C 27.278,72.9564 40.6114,68.1231 58.5,75C 60.0931,75.9487 61.4264,77.1154 62.5,78.5 Z"/></g>
<g><path style="opacity:1" fill="#4b5358" d="M 65.5,85.5 C 51.4675,73.2978 37.8008,73.6311 24.5,86.5C 29.158,79.0833 35.9913,75.4167 45,75.5C 53.8531,75.1486 60.6864,78.4819 65.5,85.5 Z"/></g>
<g><path style="opacity:1" fill="#6a7074" d="M 62.5,78.5 C 65.5,79.5 67.5,81.5 68.5,84.5C 66.1667,82.8333 64.1667,80.8333 62.5,78.5 Z"/></g>
<g><path style="opacity:1" fill="#fc0a08" d="M 104.5,82.5 C 113.276,82.0592 121.942,82.5592 130.5,84C 137.167,89.6667 137.167,95.3333 130.5,101C 137.155,104.781 138.655,109.948 135,116.5C 133.048,118.894 130.548,120.394 127.5,121C 119.841,121.5 112.174,121.666 104.5,121.5C 104.5,108.5 104.5,95.5 104.5,82.5 Z"/></g>
<g><path style="opacity:1" fill="#fc120c" d="M 151.5,81.5 C 166.982,79.3923 175.315,86.059 176.5,101.5C 175.35,116.49 167.35,123.324 152.5,122C 142.261,116.678 138.094,108.178 140,96.5C 141.466,89.5512 145.3,84.5512 151.5,81.5 Z"/></g>
<g><path style="opacity:1" fill="#fc120c" d="M 187.5,81.5 C 195.621,79.9767 202.621,81.9767 208.5,87.5C 206.465,89.3722 204.298,91.0389 202,92.5C 198.778,90.2946 195.278,89.4613 191.5,90C 189.398,91.7328 189.065,93.7328 190.5,96C 195.754,96.9169 200.754,98.5836 205.5,101C 211.587,109.027 210.254,115.694 201.5,121C 192.037,124.465 184.037,122.465 177.5,115C 179.35,112.982 181.35,111.149 183.5,109.5C 187.459,113.225 192.126,114.392 197.5,113C 200.326,110.478 199.993,108.478 196.5,107C 189.366,106.521 183.866,103.354 180,97.5C 179.333,94.8333 179.333,92.1667 180,89.5C 182.028,86.3078 184.528,83.6411 187.5,81.5 Z"/></g>
<g><path style="opacity:1" fill="#fc0e0a" d="M 224.5,81.5 C 233.387,79.4698 240.387,82.1365 245.5,89.5C 243.241,91.5448 240.741,93.2115 238,94.5C 230.825,88.2535 225.491,89.5868 222,98.5C 221.101,103.802 222.601,108.302 226.5,112C 231.28,114.204 235.114,113.037 238,108.5C 240.333,110.167 242.667,111.833 245,113.5C 243.545,117.942 240.379,120.776 235.5,122C 224.223,123.779 216.723,119.279 213,108.5C 209.975,96.3689 213.808,87.3689 224.5,81.5 Z"/></g>
<g><path style="opacity:1" fill="#fc110c" d="M 271.5,106.5 C 267.702,105.517 263.702,105.183 259.5,105.5C 259.5,110.833 259.5,116.167 259.5,121.5C 256.167,121.5 252.833,121.5 249.5,121.5C 249.5,108.5 249.5,95.5 249.5,82.5C 252.833,82.5 256.167,82.5 259.5,82.5C 259.5,87.1667 259.5,91.8333 259.5,96.5C 263.5,96.5 267.5,96.5 271.5,96.5C 271.5,91.8333 271.5,87.1667 271.5,82.5C 275.167,82.5 278.833,82.5 282.5,82.5C 282.5,95.5 282.5,108.5 282.5,121.5C 278.833,121.5 275.167,121.5 271.5,121.5C 271.5,116.5 271.5,111.5 271.5,106.5 Z"/></g>
<g><path style="opacity:1" fill="#fcf9f9" d="M 114.5,90.5 C 117.518,90.3354 120.518,90.502 123.5,91C 126.167,93 126.167,95 123.5,97C 120.518,97.498 117.518,97.6646 114.5,97.5C 114.5,95.1667 114.5,92.8333 114.5,90.5 Z"/></g>
<g><path style="opacity:1" fill="#fdf5f4" d="M 155.5,90.5 C 162.778,90.4443 166.445,94.111 166.5,101.5C 166.815,107.907 163.982,111.907 158,113.5C 152.018,111.907 149.185,107.907 149.5,101.5C 149.706,96.7474 151.706,93.0807 155.5,90.5 Z"/></g>
<g><path style="opacity:1" fill="#cdd3d7" d="M 35.5,83.5 C 34.1944,86.6868 34.1944,90.0202 35.5,93.5C 36.1067,93.3764 36.44,93.0431 36.5,92.5C 42.5,92.5 48.5,92.5 54.5,92.5C 54.2161,89.2234 54.5495,86.0567 55.5,83C 59.1041,83.0937 61.4374,84.927 62.5,88.5C 62.5394,89.5832 62.8728,90.5832 63.5,91.5C 62.5754,92.5624 61.5754,92.5624 60.5,91.5C 60.2172,90.7109 59.7172,90.0442 59,89.5C 58.5017,92.8168 58.335,96.1501 58.5,99.5C 56.631,101.635 55.9644,104.302 56.5,107.5C 49.6457,107.824 42.979,107.491 36.5,106.5C 42.8333,106.5 49.1667,106.5 55.5,106.5C 55.5,103.833 55.5,101.167 55.5,98.5C 49.1667,98.5 42.8333,98.5 36.5,98.5C 42.6534,97.6721 48.9867,97.1721 55.5,97C 52,96.8333 48.5,96.6667 45,96.5C 41.0982,96.5123 37.5982,97.179 34.5,98.5C 33.8501,98.1961 33.1835,97.8627 32.5,97.5C 31.8331,102.317 31.1665,106.983 30.5,111.5C 27.6111,104.378 27.9444,97.3779 31.5,90.5C 31.1543,89.3044 30.6543,89.3044 30,90.5C 29,92.5 28,94.5 27,96.5C 26.6582,94.3808 25.8249,94.0474 24.5,95.5C 25.2472,90.2247 27.9139,86.058 32.5,83C 33.7494,82.2599 34.7494,82.4265 35.5,83.5 Z"/></g>
<g><path style="opacity:1" fill="#454f54" d="M 35.5,83.5 C 35.19,86.7131 35.5233,89.7131 36.5,92.5C 36.44,93.0431 36.1067,93.3764 35.5,93.5C 34.1944,90.0202 34.1944,86.6868 35.5,83.5 Z"/></g>
<g><path style="opacity:1" fill="#434e53" d="M 36.5,98.5 C 35.5269,100.948 35.1936,103.615 35.5,106.5C 34.5269,104.052 34.1936,101.385 34.5,98.5C 37.5982,97.179 41.0982,96.5123 45,96.5C 48.5,96.6667 52,96.8333 55.5,97C 48.9867,97.1721 42.6534,97.6721 36.5,98.5 Z"/></g>
<g><path style="opacity:1" fill="#8e9aa2" d="M 62.5,88.5 C 63.9063,88.9731 64.573,89.9731 64.5,91.5C 65.3125,96.3089 64.9791,100.976 63.5,105.5C 63.8809,100.814 62.8809,96.4809 60.5,92.5C 60.5,92.1667 60.5,91.8333 60.5,91.5C 61.5754,92.5624 62.5754,92.5624 63.5,91.5C 62.8728,90.5832 62.5394,89.5832 62.5,88.5 Z"/></g>
<g><path style="opacity:1" fill="#f8f8f8" d="M 36.5,98.5 C 42.8333,98.5 49.1667,98.5 55.5,98.5C 55.5,101.167 55.5,103.833 55.5,106.5C 49.1667,106.5 42.8333,106.5 36.5,106.5C 36.1667,106.5 35.8333,106.5 35.5,106.5C 35.1936,103.615 35.5269,100.948 36.5,98.5 Z"/></g>
<g><path style="opacity:1" fill="#4a585e" d="M 60.5,91.5 C 60.5,91.8333 60.5,92.1667 60.5,92.5C 59.3454,99.3209 59.1787,106.321 60,113.5C 61.467,110.921 62.6336,108.254 63.5,105.5C 64.9791,100.976 65.3125,96.3089 64.5,91.5C 70.267,103.56 67.6003,113.56 56.5,121.5C 55.7025,121.043 55.3691,120.376 55.5,119.5C 56.2389,119.631 56.9056,119.464 57.5,119C 56.3895,116.263 56.2228,113.429 57,110.5C 57.3333,111.167 57.6667,111.833 58,112.5C 58.499,108.179 58.6657,103.846 58.5,99.5C 58.335,96.1501 58.5017,92.8168 59,89.5C 59.7172,90.0442 60.2172,90.7109 60.5,91.5 Z"/></g>
<g><path style="opacity:1" fill="#e3e3e3" d="M 60.5,92.5 C 62.8809,96.4809 63.8809,100.814 63.5,105.5C 62.6336,108.254 61.467,110.921 60,113.5C 59.1787,106.321 59.3454,99.3209 60.5,92.5 Z"/></g>
<g><path style="opacity:1" fill="#55636a" d="M 68.5,84.5 C 72.9884,89.1709 74.9884,94.8376 74.5,101.5C 75.0568,108.497 73.0568,114.497 68.5,119.5C 68.7512,117.83 69.4178,116.33 70.5,115C 69.7476,114.329 69.4142,113.496 69.5,112.5C 71.2536,107.296 71.7536,101.963 71,96.5C 69.3446,92.6969 67.5112,89.0302 65.5,85.5C 66.4584,85.9528 67.2917,86.6195 68,87.5C 68.4828,86.552 68.6495,85.552 68.5,84.5 Z"/></g>
<g><path style="opacity:1" fill="#fcf0f0" d="M 114.5,105.5 C 117.85,105.335 121.183,105.502 124.5,106C 127.167,108.333 127.167,110.667 124.5,113C 121.183,113.498 117.85,113.665 114.5,113.5C 114.5,110.833 114.5,108.167 114.5,105.5 Z"/></g>
<g><path style="opacity:1" fill="#758389" d="M 34.5,98.5 C 34.1936,101.385 34.5269,104.052 35.5,106.5C 35.8333,106.5 36.1667,106.5 36.5,106.5C 42.979,107.491 49.6457,107.824 56.5,107.5C 55.9644,104.302 56.631,101.635 58.5,99.5C 58.6657,103.846 58.499,108.179 58,112.5C 57.6667,111.833 57.3333,111.167 57,110.5C 56.2228,113.429 56.3895,116.263 57.5,119C 56.9056,119.464 56.2389,119.631 55.5,119.5C 55.5,116.833 55.5,114.167 55.5,111.5C 48.8333,111.5 42.1667,111.5 35.5,111.5C 41.9874,110.672 48.654,110.172 55.5,110C 48.8333,109.667 42.1667,109.333 35.5,109C 34.0325,107.902 33.1992,106.402 33,104.5C 32.6667,107.833 32.3333,111.167 32,114.5C 31.4867,113.473 30.9867,112.473 30.5,111.5C 31.1665,106.983 31.8331,102.317 32.5,97.5C 33.1835,97.8627 33.8501,98.1961 34.5,98.5 Z"/></g>
<g><path style="opacity:1" fill="#f59d9d" d="M 271.5,106.5 C 267.833,106.5 264.167,106.5 260.5,106.5C 260.821,111.695 260.487,116.695 259.5,121.5C 259.5,116.167 259.5,110.833 259.5,105.5C 263.702,105.183 267.702,105.517 271.5,106.5 Z"/></g>
<g><path style="opacity:1" fill="#546168" d="M 30.5,111.5 C 30.9867,112.473 31.4867,113.473 32,114.5C 32.3333,111.167 32.6667,107.833 33,104.5C 33.1992,106.402 34.0325,107.902 35.5,109C 42.1667,109.333 48.8333,109.667 55.5,110C 48.654,110.172 41.9874,110.672 35.5,111.5C 37.1007,121.877 34.6007,123.544 28,116.5C 23.7087,109.901 22.5421,102.901 24.5,95.5C 25.8249,94.0474 26.6582,94.3808 27,96.5C 28,94.5 29,92.5 30,90.5C 30.6543,89.3044 31.1543,89.3044 31.5,90.5C 27.9444,97.3779 27.6111,104.378 30.5,111.5 Z"/></g>
<g><path style="opacity:1" fill="#626c72" d="M 24.5,86.5 C 23.3599,88.7802 22.1932,91.1136 21,93.5C 18.5146,104.864 21.348,114.531 29.5,122.5C 26.9438,121.457 24.7772,119.79 23,117.5C 25.4965,123.306 29.9965,127.14 36.5,129C 49.1099,131.96 59.7766,128.793 68.5,119.5C 64.6577,125.774 58.991,129.607 51.5,131C 35.2347,132.95 23.7347,126.45 17,111.5C 16.0379,104.014 16.5379,96.6802 18.5,89.5C 20.5,88.5 22.5,87.5 24.5,86.5 Z"/></g>
<g><path style="opacity:1" fill="#c3ccd0" d="M 69.5,112.5 C 69.4142,113.496 69.7476,114.329 70.5,115C 69.4178,116.33 68.7512,117.83 68.5,119.5C 59.7766,128.793 49.1099,131.96 36.5,129C 29.9965,127.14 25.4965,123.306 23,117.5C 24.7772,119.79 26.9438,121.457 29.5,122.5C 45.5209,130.516 58.8542,127.182 69.5,112.5 Z"/></g>
</svg>
