<?xml version="1.0" encoding="UTF-8"?>
<!DOCTYPE svg PUBLIC "-//W3C//DTD SVG 1.1//EN" "http://www.w3.org/Graphics/SVG/1.1/DTD/svg11.dtd">
<svg xmlns="http://www.w3.org/2000/svg" version="1.1" width="1200px" height="675px" style="shape-rendering:geometricPrecision; text-rendering:geometricPrecision; image-rendering:optimizeQuality; fill-rule:evenodd; clip-rule:evenodd" xmlns:xlink="http://www.w3.org/1999/xlink">
<g><path style="opacity:1" fill="#76b900" d="M -0.5,-0.5 C 399.5,-0.5 799.5,-0.5 1199.5,-0.5C 1199.5,224.5 1199.5,449.5 1199.5,674.5C 799.5,674.5 399.5,674.5 -0.5,674.5C -0.5,449.5 -0.5,224.5 -0.5,-0.5 Z"/></g>
<g><path style="opacity:1" fill="#fefefd" d="M 513.5,119.5 C 601.5,119.5 689.5,119.5 777.5,119.5C 777.5,212.833 777.5,306.167 777.5,399.5C 689.332,399.833 601.332,399.499 513.5,398.5C 513.172,387.654 513.506,376.987 514.5,366.5C 526.505,366.667 538.505,366.5 550.5,366C 565.222,364.157 579.889,361.991 594.5,359.5C 597.152,359.59 599.485,358.924 601.5,357.5C 608.782,355.619 616.116,353.953 623.5,352.5C 626.152,352.59 628.485,351.924 630.5,350.5C 634.749,349.197 639.082,347.864 643.5,346.5C 646.152,346.59 648.485,345.924 650.5,344.5C 652.936,343.129 655.603,342.129 658.5,341.5C 663.703,340.991 668.37,339.324 672.5,336.5C 691.34,328.855 709.673,320.022 727.5,310C 733.948,306.046 739.948,301.546 745.5,296.5C 729.898,286.782 714.064,277.448 698,268.5C 679.744,283.421 660.91,297.588 641.5,311C 626.837,319.831 611.504,327.331 595.5,333.5C 593.033,333.755 591.033,334.755 589.5,336.5C 582.023,337.703 574.69,339.536 567.5,342C 549.597,345.393 531.597,346.226 513.5,344.5C 513.175,336.648 513.508,328.982 514.5,321.5C 529.273,323.162 543.939,322.496 558.5,319.5C 561.152,319.59 563.485,318.924 565.5,317.5C 610.496,300.307 648.163,272.807 678.5,235C 645.968,195.396 604.634,170.063 554.5,159C 549.504,158.389 544.504,157.889 539.5,157.5C 531.016,156.507 522.349,156.174 513.5,156.5C 513.5,144.167 513.5,131.833 513.5,119.5 Z"/></g>
<g><path style="opacity:1" fill="#e1efc7" d="M 506.5,157.5 C 506.082,158.222 505.416,158.722 504.5,159C 501.183,159.498 497.85,159.665 494.5,159.5C 498.295,158.383 502.295,157.717 506.5,157.5 Z"/></g>
<g><path style="opacity:1" fill="#fdfefc" d="M 506.5,157.5 C 508.5,157.5 510.5,157.5 512.5,157.5C 512.5,164.167 512.5,170.833 512.5,177.5C 508.183,177.083 504.183,177.75 500.5,179.5C 459.634,185.93 426.301,205.263 400.5,237.5C 399.305,237.866 398.639,238.699 398.5,240C 398.899,241.728 399.566,243.228 400.5,244.5C 413.019,276.202 432.686,302.702 459.5,324C 470.565,331.033 482.232,336.7 494.5,341C 499.412,342.416 504.412,343.249 509.5,343.5C 510.209,344.404 511.209,344.737 512.5,344.5C 512.5,351.5 512.5,358.5 512.5,365.5C 511.5,365.5 510.5,365.5 509.5,365.5C 508.167,365.5 506.833,365.5 505.5,365.5C 505.082,364.778 504.416,364.278 503.5,364C 500.518,363.502 497.518,363.335 494.5,363.5C 490.298,362.033 485.965,361.033 481.5,360.5C 479.383,358.345 476.716,357.345 473.5,357.5C 438.849,344.57 410.349,323.237 388,293.5C 374.777,275.893 364.277,256.726 356.5,236C 356.643,233.849 357.643,232.182 359.5,231C 389.308,204.757 422.641,184.09 459.5,169C 470.873,164.74 482.54,161.573 494.5,159.5C 497.85,159.665 501.183,159.498 504.5,159C 505.416,158.722 506.082,158.222 506.5,157.5 Z"/></g>
<g><path style="opacity:1" fill="#78ba09" d="M 539.5,157.5 C 544.504,157.889 549.504,158.389 554.5,159C 604.634,170.063 645.968,195.396 678.5,235C 648.163,272.807 610.496,300.307 565.5,317.5C 562.848,317.41 560.515,318.076 558.5,319.5C 543.939,322.496 529.273,323.162 514.5,321.5C 513.542,315.256 513.209,308.923 513.5,302.5C 514.833,302.5 516.167,302.5 517.5,302.5C 522.088,303.928 526.921,304.595 532,304.5C 535.021,304.498 537.854,304.164 540.5,303.5C 542.5,303.5 544.5,303.5 546.5,303.5C 548.898,303.741 550.898,303.074 552.5,301.5C 566.86,297.216 579.86,290.383 591.5,281C 607.924,267.912 622.257,252.912 634.5,236C 618.555,216.216 599.222,200.716 576.5,189.5C 576.027,188.094 575.027,187.427 573.5,187.5C 569.421,186.363 565.421,185.029 561.5,183.5C 559.152,181.903 556.486,180.903 553.5,180.5C 546.799,179.716 540.132,178.716 533.5,177.5C 527.021,176.509 520.354,176.176 513.5,176.5C 513.5,170.167 513.5,163.833 513.5,157.5C 522.167,157.5 530.833,157.5 539.5,157.5 Z"/></g>
<g><path style="opacity:1" fill="#fdfefd" d="M 533.5,177.5 C 540.132,178.716 546.799,179.716 553.5,180.5C 555.698,182.397 558.364,183.397 561.5,183.5C 565.421,185.029 569.421,186.363 573.5,187.5C 573.973,188.906 574.973,189.573 576.5,189.5C 599.222,200.716 618.555,216.216 634.5,236C 622.257,252.912 607.924,267.912 591.5,281C 579.86,290.383 566.86,297.216 552.5,301.5C 550.102,301.259 548.102,301.926 546.5,303.5C 544.5,303.5 542.5,303.5 540.5,303.5C 532.817,303.477 525.15,303.143 517.5,302.5C 516.469,301.751 515.302,301.085 514,300.5C 513.5,275.169 513.333,249.836 513.5,224.5C 526.619,225.712 537.453,231.379 546,241.5C 551.344,249.53 556.677,257.53 562,265.5C 573.845,255.983 585.345,246.149 596.5,236C 574.735,210.679 547.068,199.513 513.5,202.5C 513.5,194.167 513.5,185.833 513.5,177.5C 520.167,177.5 526.833,177.5 533.5,177.5 Z"/></g>
<g><path style="opacity:1" fill="#78ba09" d="M 507.5,203.5 C 507.167,203.5 506.833,203.5 506.5,203.5C 502.96,203.753 499.627,204.419 496.5,205.5C 475.766,210.571 457.1,219.738 440.5,233C 436.907,236.085 433.907,239.585 431.5,243.5C 441.524,275.72 461.524,299.554 491.5,315C 495.154,316.274 498.82,317.44 502.5,318.5C 504.515,319.924 506.848,320.59 509.5,320.5C 509.833,320.5 510.167,320.5 510.5,320.5C 512.414,327.892 513.081,335.559 512.5,343.5C 511.5,343.5 510.5,343.5 509.5,343.5C 504.412,343.249 499.412,342.416 494.5,341C 482.232,336.7 470.565,331.033 459.5,324C 432.686,302.702 413.019,276.202 400.5,244.5C 400.5,242.167 400.5,239.833 400.5,237.5C 426.301,205.263 459.634,185.93 500.5,179.5C 504.466,178.838 508.466,178.505 512.5,178.5C 512.5,186.5 512.5,194.5 512.5,202.5C 510.585,202.216 508.919,202.549 507.5,203.5 Z"/></g>
<g><path style="opacity:1" fill="#d4e8ad" d="M 553.5,180.5 C 556.486,180.903 559.152,181.903 561.5,183.5C 558.364,183.397 555.698,182.397 553.5,180.5 Z"/></g>
<g><path style="opacity:1" fill="#c4e192" d="M 573.5,187.5 C 575.027,187.427 576.027,188.094 576.5,189.5C 574.973,189.573 573.973,188.906 573.5,187.5 Z"/></g>
<g><path style="opacity:1" fill="#fdfefb" d="M 506.5,203.5 C 506.833,203.5 507.167,203.5 507.5,203.5C 509.167,203.5 510.833,203.5 512.5,203.5C 512.5,210.167 512.5,216.833 512.5,223.5C 509.287,223.19 506.287,223.523 503.5,224.5C 487.899,227.13 475.233,234.63 465.5,247C 471.68,266.708 483.013,282.708 499.5,295C 503.407,297.121 507.407,298.955 511.5,300.5C 512.13,303.917 512.463,307.417 512.5,311C 512.485,314.576 511.818,317.742 510.5,320.5C 510.167,320.5 509.833,320.5 509.5,320.5C 507.485,319.076 505.152,318.41 502.5,318.5C 498.82,317.44 495.154,316.274 491.5,315C 461.524,299.554 441.524,275.72 431.5,243.5C 433.907,239.585 436.907,236.085 440.5,233C 457.1,219.738 475.766,210.571 496.5,205.5C 500.16,205.841 503.493,205.175 506.5,203.5 Z"/></g>
<g><path style="opacity:1" fill="#77b908" d="M 513.5,202.5 C 547.068,199.513 574.735,210.679 596.5,236C 585.345,246.149 573.845,255.983 562,265.5C 556.677,257.53 551.344,249.53 546,241.5C 537.453,231.379 526.619,225.712 513.5,224.5C 513.5,217.167 513.5,209.833 513.5,202.5 Z"/></g>
<g><path style="opacity:1" fill="#d3e8ad" d="M 506.5,203.5 C 503.493,205.175 500.16,205.841 496.5,205.5C 499.627,204.419 502.96,203.753 506.5,203.5 Z"/></g>
<g><path style="opacity:1" fill="#77b906" d="M 503.5,224.5 C 506.5,224.5 509.5,224.5 512.5,224.5C 512.831,250.005 512.498,275.339 511.5,300.5C 507.407,298.955 503.407,297.121 499.5,295C 483.013,282.708 471.68,266.708 465.5,247C 475.233,234.63 487.899,227.13 503.5,224.5 Z"/></g>
<g><path style="opacity:1" fill="#c5e193" d="M 513.5,119.5 C 513.5,131.833 513.5,144.167 513.5,156.5C 522.349,156.174 531.016,156.507 539.5,157.5C 530.833,157.5 522.167,157.5 513.5,157.5C 513.5,163.833 513.5,170.167 513.5,176.5C 520.354,176.176 527.021,176.509 533.5,177.5C 526.833,177.5 520.167,177.5 513.5,177.5C 513.5,185.833 513.5,194.167 513.5,202.5C 513.5,209.833 513.5,217.167 513.5,224.5C 513.333,249.836 513.5,275.169 514,300.5C 515.302,301.085 516.469,301.751 517.5,302.5C 516.167,302.5 514.833,302.5 513.5,302.5C 513.209,308.923 513.542,315.256 514.5,321.5C 513.508,328.982 513.175,336.648 513.5,344.5C 513.203,351.92 513.536,359.254 514.5,366.5C 513.506,376.987 513.172,387.654 513.5,398.5C 512.506,388.013 512.172,377.346 512.5,366.5C 511.209,366.737 510.209,366.404 509.5,365.5C 510.5,365.5 511.5,365.5 512.5,365.5C 512.5,358.5 512.5,351.5 512.5,344.5C 511.209,344.737 510.209,344.404 509.5,343.5C 510.5,343.5 511.5,343.5 512.5,343.5C 513.081,335.559 512.414,327.892 510.5,320.5C 511.818,317.742 512.485,314.576 512.5,311C 512.463,307.417 512.13,303.917 511.5,300.5C 512.498,275.339 512.831,250.005 512.5,224.5C 509.5,224.5 506.5,224.5 503.5,224.5C 506.287,223.523 509.287,223.19 512.5,223.5C 512.5,216.833 512.5,210.167 512.5,203.5C 510.833,203.5 509.167,203.5 507.5,203.5C 508.919,202.549 510.585,202.216 512.5,202.5C 512.5,194.5 512.5,186.5 512.5,178.5C 508.466,178.505 504.466,178.838 500.5,179.5C 504.183,177.75 508.183,177.083 512.5,177.5C 512.5,170.833 512.5,164.167 512.5,157.5C 512.171,144.656 512.505,131.989 513.5,119.5 Z"/></g>
<g><path style="opacity:1" fill="#aed56a" d="M 400.5,237.5 C 400.5,239.833 400.5,242.167 400.5,244.5C 399.566,243.228 398.899,241.728 398.5,240C 398.639,238.699 399.305,237.866 400.5,237.5 Z"/></g>
<g><path style="opacity:1" fill="#77b907" d="M 672.5,336.5 C 667.607,337.796 662.94,339.462 658.5,341.5C 655.603,342.129 652.936,343.129 650.5,344.5C 647.848,344.41 645.515,345.076 643.5,346.5C 639.082,347.864 634.749,349.197 630.5,350.5C 627.848,350.41 625.515,351.076 623.5,352.5C 616.116,353.953 608.782,355.619 601.5,357.5C 598.848,357.41 596.515,358.076 594.5,359.5C 579.889,361.991 565.222,364.157 550.5,366C 538.505,366.5 526.505,366.667 514.5,366.5C 513.536,359.254 513.203,351.92 513.5,344.5C 531.597,346.226 549.597,345.393 567.5,342C 574.69,339.536 582.023,337.703 589.5,336.5C 591.967,336.245 593.967,335.245 595.5,333.5C 611.504,327.331 626.837,319.831 641.5,311C 660.91,297.588 679.744,283.421 698,268.5C 714.064,277.448 729.898,286.782 745.5,296.5C 739.948,301.546 733.948,306.046 727.5,310C 709.673,320.022 691.34,328.855 672.5,336.5 Z"/></g>
<g><path style="opacity:1" fill="#b1d66f" d="M 552.5,301.5 C 550.898,303.074 548.898,303.741 546.5,303.5C 548.102,301.926 550.102,301.259 552.5,301.5 Z"/></g>
<g><path style="opacity:1" fill="#e6f2d0" d="M 517.5,302.5 C 525.15,303.143 532.817,303.477 540.5,303.5C 537.854,304.164 535.021,304.498 532,304.5C 526.921,304.595 522.088,303.928 517.5,302.5 Z"/></g>
<g><path style="opacity:1" fill="#d1e7a8" d="M 502.5,318.5 C 505.152,318.41 507.485,319.076 509.5,320.5C 506.848,320.59 504.515,319.924 502.5,318.5 Z"/></g>
<g><path style="opacity:1" fill="#d5e9af" d="M 565.5,317.5 C 563.485,318.924 561.152,319.59 558.5,319.5C 560.515,318.076 562.848,317.41 565.5,317.5 Z"/></g>
<g><path style="opacity:1" fill="#b1d66e" d="M 595.5,333.5 C 593.967,335.245 591.967,336.245 589.5,336.5C 591.033,334.755 593.033,333.755 595.5,333.5 Z"/></g>
<g><path style="opacity:1" fill="#e2f0c8" d="M 672.5,336.5 C 668.37,339.324 663.703,340.991 658.5,341.5C 662.94,339.462 667.607,337.796 672.5,336.5 Z"/></g>
<g><path style="opacity:1" fill="#d8ebb7" d="M 650.5,344.5 C 648.485,345.924 646.152,346.59 643.5,346.5C 645.515,345.076 647.848,344.41 650.5,344.5 Z"/></g>
<g><path style="opacity:1" fill="#dcecbd" d="M 630.5,350.5 C 628.485,351.924 626.152,352.59 623.5,352.5C 625.515,351.076 627.848,350.41 630.5,350.5 Z"/></g>
<g><path style="opacity:1" fill="#d4e9af" d="M 473.5,357.5 C 476.716,357.345 479.383,358.345 481.5,360.5C 478.603,359.871 475.936,358.871 473.5,357.5 Z"/></g>
<g><path style="opacity:1" fill="#d3e8ad" d="M 601.5,357.5 C 599.485,358.924 597.152,359.59 594.5,359.5C 596.515,358.076 598.848,357.41 601.5,357.5 Z"/></g>
<g><path style="opacity:1" fill="#d6e9b2" d="M 494.5,363.5 C 497.518,363.335 500.518,363.502 503.5,364C 504.416,364.278 505.082,364.778 505.5,365.5C 501.613,365.354 497.946,364.687 494.5,363.5 Z"/></g>
<g><path style="opacity:1" fill="#a5d05a" d="M 380.5,449.5 C 380.5,449.167 380.5,448.833 380.5,448.5C 385.536,448.588 390.536,449.088 395.5,450C 396.056,450.383 396.389,450.883 396.5,451.5C 391.24,450.368 385.907,449.701 380.5,449.5 Z"/></g>
<g><path style="opacity:1" fill="#fefefd" d="M 380.5,449.5 C 385.907,449.701 391.24,450.368 396.5,451.5C 410.491,455.325 419.325,464.325 423,478.5C 424.462,503.448 424.962,528.448 424.5,553.5C 414.833,553.5 405.167,553.5 395.5,553.5C 395.667,532.831 395.5,512.164 395,491.5C 392.319,481.312 385.819,475.645 375.5,474.5C 366.682,473.507 357.682,473.173 348.5,473.5C 348.5,500.167 348.5,526.833 348.5,553.5C 338.833,553.5 329.167,553.5 319.5,553.5C 319.5,518.833 319.5,484.167 319.5,449.5C 339.833,449.5 360.167,449.5 380.5,449.5 Z"/></g>
<g><path style="opacity:1" fill="#fdfefb" d="M 482.5,524.5 C 482.857,526.589 483.523,528.589 484.5,530.5C 485.107,530.376 485.44,530.043 485.5,529.5C 490.716,512.795 495.716,496.129 500.5,479.5C 501.924,477.485 502.59,475.152 502.5,472.5C 504.295,464.604 506.629,456.771 509.5,449C 519.494,448.5 529.494,448.334 539.5,448.5C 536.646,457.065 533.979,465.732 531.5,474.5C 530.076,476.515 529.41,478.848 529.5,481.5C 521.259,504.892 513.592,528.559 506.5,552.5C 492.245,553.482 477.912,553.816 463.5,553.5C 462.883,553.389 462.383,553.056 462,552.5C 459.688,542.071 456.521,532.071 452.5,522.5C 452.59,519.848 451.924,517.515 450.5,515.5C 447.744,506.343 444.744,497.343 441.5,488.5C 441.59,485.848 440.924,483.515 439.5,481.5C 435.772,470.646 432.438,459.646 429.5,448.5C 440.167,448.5 450.833,448.5 461.5,448.5C 468.809,473.735 475.809,499.069 482.5,524.5 Z"/></g>
<g><path style="opacity:1" fill="#fdfefb" d="M 700.5,518.5 C 699.232,520.905 698.565,523.572 698.5,526.5C 693.035,543.459 681.368,552.292 663.5,553C 642.169,553.5 620.836,553.667 599.5,553.5C 599.171,518.594 599.504,483.76 600.5,449C 618.833,448.333 637.167,448.333 655.5,449C 687.299,451.97 702.632,469.47 701.5,501.5C 701.428,507.201 701.094,512.867 700.5,518.5 Z"/></g>
<g><path style="opacity:1" fill="#fdfefb" d="M 879.5,552.5 C 869.347,553.494 859.014,553.828 848.5,553.5C 846.515,547.841 844.515,542.174 842.5,536.5C 825.847,535.501 809.18,535.167 792.5,535.5C 790.724,541.495 788.724,547.495 786.5,553.5C 776.856,554.498 767.19,554.832 757.5,554.5C 770.584,519.243 784.251,484.243 798.5,449.5C 812.063,448.178 825.563,448.178 839,449.5C 852.805,483.755 866.305,518.088 879.5,552.5 Z"/></g>
<g><path style="opacity:1" fill="#d4e9b0" d="M 380.5,448.5 C 380.5,448.833 380.5,449.167 380.5,449.5C 360.167,449.5 339.833,449.5 319.5,449.5C 319.5,484.167 319.5,518.833 319.5,553.5C 329.167,553.5 338.833,553.5 348.5,553.5C 338.681,554.494 328.681,554.827 318.5,554.5C 318.5,519.167 318.5,483.833 318.5,448.5C 339.167,448.5 359.833,448.5 380.5,448.5 Z"/></g>
<g><path style="opacity:1" fill="#c8e399" d="M 552.5,553.5 C 551.502,518.671 551.168,483.671 551.5,448.5C 561.833,448.5 572.167,448.5 582.5,448.5C 582.5,483.833 582.5,519.167 582.5,554.5C 572.319,554.827 562.319,554.494 552.5,553.5 Z"/></g>
<g><path style="opacity:1" fill="#fefefe" d="M 552.5,553.5 C 552.5,518.833 552.5,484.167 552.5,449.5C 562.167,449.5 571.833,449.5 581.5,449.5C 581.5,484.167 581.5,518.833 581.5,553.5C 571.833,553.5 562.167,553.5 552.5,553.5 Z"/></g>
<g><path style="opacity:1" fill="#d9ebb8" d="M 715.5,448.5 C 725.5,448.5 735.5,448.5 745.5,448.5C 745.5,483.833 745.5,519.167 745.5,554.5C 735.5,554.5 725.5,554.5 715.5,554.5C 715.5,519.167 715.5,483.833 715.5,448.5 Z"/></g>
<g><path style="opacity:1" fill="#fefffe" d="M 716.5,449.5 C 725.833,449.5 735.167,449.5 744.5,449.5C 744.5,484.167 744.5,518.833 744.5,553.5C 735.167,553.5 725.833,553.5 716.5,553.5C 716.5,518.833 716.5,484.167 716.5,449.5 Z"/></g>
<g><path style="opacity:1" fill="#76b902" d="M 648.5,472.5 C 657.832,473.182 664.832,477.516 669.5,485.5C 671.294,494.022 671.961,502.689 671.5,511.5C 668.525,522.804 661.192,529.138 649.5,530.5C 643.167,530.5 636.833,530.5 630.5,530.5C 630.5,511.167 630.5,491.833 630.5,472.5C 636.5,472.5 642.5,472.5 648.5,472.5 Z"/></g>
<g><path style="opacity:1" fill="#9bcc46" d="M 648.5,472.5 C 642.5,472.5 636.5,472.5 630.5,472.5C 630.5,491.833 630.5,511.167 630.5,530.5C 636.833,530.5 643.167,530.5 649.5,530.5C 643.021,531.491 636.354,531.824 629.5,531.5C 629.5,511.5 629.5,491.5 629.5,471.5C 636.022,471.177 642.355,471.51 648.5,472.5 Z"/></g>
<g><path style="opacity:1" fill="#d1e7a9" d="M 502.5,472.5 C 502.59,475.152 501.924,477.485 500.5,479.5C 500.41,476.848 501.076,474.515 502.5,472.5 Z"/></g>
<g><path style="opacity:1" fill="#bddd84" d="M 375.5,474.5 C 366.833,474.5 358.167,474.5 349.5,474.5C 349.831,501.005 349.498,527.339 348.5,553.5C 348.5,526.833 348.5,500.167 348.5,473.5C 357.682,473.173 366.682,473.507 375.5,474.5 Z"/></g>
<g><path style="opacity:1" fill="#7abb12" d="M 835.5,516.5 C 824.167,516.5 812.833,516.5 801.5,516.5C 801.5,515.167 801.5,513.833 801.5,512.5C 806.541,498.189 812.041,484.189 818,470.5C 818.945,470.905 819.612,471.572 820,472.5C 824.922,487.325 830.088,501.991 835.5,516.5 Z"/></g>
<g><path style="opacity:1" fill="#bcdc81" d="M 531.5,474.5 C 531.59,477.152 530.924,479.485 529.5,481.5C 529.41,478.848 530.076,476.515 531.5,474.5 Z"/></g>
<g><path style="opacity:1" fill="#b2d76f" d="M 439.5,481.5 C 440.924,483.515 441.59,485.848 441.5,488.5C 440.076,486.485 439.41,484.152 439.5,481.5 Z"/></g>
<g><path style="opacity:1" fill="#a2cf54" d="M 669.5,485.5 C 670.793,486.842 671.626,488.509 672,490.5C 672.821,497.679 672.655,504.679 671.5,511.5C 671.961,502.689 671.294,494.022 669.5,485.5 Z"/></g>
<g><path style="opacity:1" fill="#acd565" d="M 801.5,512.5 C 801.5,513.833 801.5,515.167 801.5,516.5C 812.833,516.5 824.167,516.5 835.5,516.5C 823.66,517.825 811.66,517.825 799.5,516.5C 799.994,514.974 800.661,513.641 801.5,512.5 Z"/></g>
<g><path style="opacity:1" fill="#b5d875" d="M 450.5,515.5 C 451.924,517.515 452.59,519.848 452.5,522.5C 451.076,520.485 450.41,518.152 450.5,515.5 Z"/></g>
<g><path style="opacity:1" fill="#c1df8a" d="M 700.5,518.5 C 700.706,521.495 700.04,524.162 698.5,526.5C 698.565,523.572 699.232,520.905 700.5,518.5 Z"/></g>
<g><path style="opacity:1" fill="#afd66b" d="M 482.5,524.5 C 483.935,525.913 484.935,527.58 485.5,529.5C 485.44,530.043 485.107,530.376 484.5,530.5C 483.523,528.589 482.857,526.589 482.5,524.5 Z"/></g>
<g><path style="opacity:1" fill="#ecf5dc" d="M 891.5,538.5 C 901.06,537.889 905.226,542.223 904,551.5C 901.647,556.426 897.814,558.26 892.5,557C 886.975,554.081 885.142,549.581 887,543.5C 888.366,541.638 889.866,539.972 891.5,538.5 Z"/></g>
<g><path style="opacity:1" fill="#8bc334" d="M 892.5,540.5 C 903.282,541.684 905.282,546.518 898.5,555C 890.839,555.67 887.673,552.17 889,544.5C 890.102,543.051 891.269,541.718 892.5,540.5 Z"/></g>
<g><path style="opacity:1" fill="#f2f8e6" d="M 892.5,543.5 C 894.792,543.244 896.959,543.577 899,544.5C 898.598,546.874 898.764,549.207 899.5,551.5C 899,551.833 898.5,552.167 898,552.5C 896.779,551.728 895.779,550.728 895,549.5C 894.751,550.624 894.251,551.624 893.5,552.5C 892.516,549.572 892.183,546.572 892.5,543.5 Z"/></g>
<g><path style="opacity:1" fill="#b3d871" d="M 894.5,545.5 C 896.337,545.639 896.67,546.306 895.5,547.5C 894.702,547.043 894.369,546.376 894.5,545.5 Z"/></g>
<g><path style="opacity:1" fill="#c3e192" d="M 506.5,552.5 C 499.699,553.831 492.533,554.497 485,554.5C 477.659,554.5 470.492,554.166 463.5,553.5C 477.912,553.816 492.245,553.482 506.5,552.5 Z"/></g>
<g><path style="opacity:1" fill="#c4e192" d="M 879.5,552.5 C 880.043,552.56 880.376,552.893 880.5,553.5C 869.674,554.823 859.007,554.823 848.5,553.5C 859.014,553.828 869.347,553.494 879.5,552.5 Z"/></g>
</svg>
